<svg width="82" height="70" viewBox="0 0 82 70" fill="none" xmlns="http://www.w3.org/2000/svg">
<path d="M41 51.9679C18.0043 51.9679 0 44.4828 0 34.9565C0 25.4301 18.0043 17.9451 41 17.9451C63.9957 17.9451 82 25.4301 82 34.9565C82 44.4828 63.9957 51.9679 41 51.9679ZM41 21.3473C18.5391 21.3473 3.56522 28.322 3.56522 34.9565C3.56522 41.5909 18.5391 48.5656 41 48.5656C63.4609 48.5656 78.4348 41.5909 78.4348 34.9565C78.4348 28.322 63.4609 21.3473 41 21.3473Z" fill="#80DEEA"/>
<path d="M25.1347 69.9998C23.3521 69.9998 21.926 69.6595 20.5 68.809C11.7652 64.0458 14.0826 45.5034 25.4913 26.4506C30.8391 17.6047 37.4347 10.1197 43.8521 5.35648C50.8043 0.253059 57.0434 -1.27797 61.3217 1.10363C65.7782 3.48522 67.3826 9.43921 66.313 17.7748C65.2434 25.6 61.6782 34.7862 56.3304 43.6321C50.9826 52.478 44.3869 59.963 37.9695 64.7262C33.3347 68.1285 28.8782 69.9998 25.1347 69.9998ZM56.8652 3.31511C54.013 3.31511 50.2695 4.84614 46.1695 7.90819C40.1087 12.5013 33.8695 19.646 28.7 28.1517C17.4695 46.6942 16.4 62.6849 22.2826 65.917C25.313 67.6182 30.3043 66.0871 35.8304 62.0044C41.8913 57.4113 48.1304 50.2666 53.3 41.7609C58.4695 33.2552 61.8565 24.5794 62.926 17.2645C63.8173 10.4599 62.7478 5.6967 59.7173 3.99557C58.826 3.65534 57.9347 3.31511 56.8652 3.31511Z" fill="#80DEEA"/>
<path d="M57.0435 70C48.1304 70 35.2957 59.6231 25.6696 43.4622C14.0826 24.4095 11.7652 5.86706 20.5 1.10387C29.2348 -3.65932 44.9217 7.39808 56.5087 26.4508C61.8565 35.2968 65.4217 44.4829 66.4913 52.3082C67.7391 60.6437 65.9565 66.4276 61.5 68.9793C60.0739 69.6598 58.6478 70 57.0435 70ZM22.2826 3.9958C16.4 7.22797 17.4696 23.2187 28.7 41.7611C39.9304 60.3035 53.8348 69.1494 59.7174 65.9173C62.7478 64.2161 63.8174 59.4529 62.9261 52.6484C61.8565 45.3335 58.4696 36.6577 53.3 28.152C42.0696 9.60956 28.1652 0.763639 22.2826 3.9958Z" fill="#80DEEA"/>
<path d="M41 41.761C44.938 41.761 48.1304 38.7145 48.1304 34.9564C48.1304 31.1984 44.938 28.1519 41 28.1519C37.062 28.1519 33.8696 31.1984 33.8696 34.9564C33.8696 38.7145 37.062 41.761 41 41.761Z" fill="#80DEEA"/>
</svg>
