<svg width="81" height="100" viewBox="0 0 81 100" fill="none" xmlns="http://www.w3.org/2000/svg">
<path d="M76 21H6L12.1765 91L41 99.2353L69.8235 91L76 21Z" fill="#0277BD"/>
<path d="M41 27.1765V92.853L64.0588 86.2648L69.2059 27.1765H41Z" fill="#039BE5"/>
<path d="M59.7353 37.4707H41V45.706H51.0882L50.4706 53.9413H41V62.1766H50.0588L49.4412 71.4413L41 74.3236V82.9707L57.2647 77.6178L58.7059 53.9413L59.7353 37.4707Z" fill="white"/>
<path d="M41 37.4707V45.706H22.6764L22.0588 37.4707H41ZM31.5294 53.9413L31.9411 62.1766H41V53.9413H31.5294ZM32.3529 66.2942H24.1176L24.7353 77.6178L41 82.9707V74.3236L32.5588 71.4413L32.3529 66.2942Z" fill="#EEEEEE"/>
<path d="M34.6257 9.49219H31.826C31.7749 9.12997 31.6705 8.80824 31.5128 8.52699C31.3551 8.24148 31.1527 7.99858 30.9055 7.7983C30.6584 7.59801 30.3729 7.4446 30.049 7.33807C29.7294 7.23153 29.3821 7.17827 29.0071 7.17827C28.3295 7.17827 27.7393 7.34659 27.2365 7.68324C26.7337 8.01562 26.3438 8.50142 26.0668 9.14062C25.7898 9.77557 25.6513 10.5469 25.6513 11.4545C25.6513 12.3878 25.7898 13.1719 26.0668 13.8068C26.348 14.4418 26.7401 14.9212 27.2429 15.245C27.7457 15.5689 28.3274 15.7308 28.9879 15.7308C29.3587 15.7308 29.7017 15.6818 30.017 15.5838C30.3366 15.4858 30.62 15.343 30.8672 15.1555C31.1143 14.9638 31.3189 14.7315 31.4808 14.4588C31.647 14.1861 31.7621 13.875 31.826 13.5256L34.6257 13.5384C34.5533 14.1392 34.3722 14.7188 34.0824 15.277C33.7969 15.831 33.4112 16.3274 32.9254 16.7663C32.4439 17.201 31.8686 17.5462 31.1996 17.8018C30.5348 18.0533 29.7827 18.179 28.9432 18.179C27.7756 18.179 26.7315 17.9148 25.8111 17.3864C24.8949 16.858 24.1705 16.093 23.6378 15.0916C23.1094 14.0902 22.8452 12.8778 22.8452 11.4545C22.8452 10.027 23.1136 8.8125 23.6506 7.81108C24.1875 6.80966 24.9162 6.04687 25.8366 5.52273C26.7571 4.99432 27.7926 4.73011 28.9432 4.73011C29.7017 4.73011 30.4048 4.83665 31.0526 5.04972C31.7045 5.26278 32.282 5.57386 32.7848 5.98295C33.2876 6.38778 33.6967 6.88423 34.0121 7.4723C34.3317 8.06037 34.5362 8.73366 34.6257 9.49219ZM43.712 8.67401C43.6609 8.15838 43.4414 7.75781 43.0536 7.4723C42.6658 7.18679 42.1396 7.04403 41.4748 7.04403C41.0231 7.04403 40.6417 7.10795 40.3306 7.2358C40.0195 7.35937 39.7809 7.53196 39.6147 7.75355C39.4528 7.97514 39.3718 8.22656 39.3718 8.50781C39.3633 8.74219 39.4123 8.94673 39.5188 9.12145C39.6296 9.29616 39.7809 9.44744 39.9727 9.57528C40.1644 9.69886 40.386 9.80753 40.6374 9.90128C40.8888 9.99077 41.1573 10.0675 41.4428 10.1314L42.619 10.4126C43.19 10.5405 43.7141 10.7109 44.1914 10.924C44.6687 11.1371 45.082 11.3991 45.4315 11.7102C45.7809 12.0213 46.0515 12.3878 46.2433 12.8097C46.4393 13.2315 46.5394 13.7152 46.5437 14.2607C46.5394 15.0618 46.3349 15.7564 45.93 16.3445C45.5295 16.9283 44.9499 17.3821 44.1914 17.706C43.4371 18.0256 42.5273 18.1854 41.462 18.1854C40.4052 18.1854 39.4847 18.0234 38.7006 17.6996C37.9208 17.3757 37.3114 16.8963 36.8725 16.2614C36.4379 15.6222 36.2099 14.8317 36.1886 13.8899H38.8668C38.8967 14.3288 39.0224 14.6953 39.244 14.9893C39.4698 15.2791 39.7702 15.4986 40.1452 15.6477C40.5245 15.7926 40.9528 15.8651 41.43 15.8651C41.8988 15.8651 42.3058 15.7969 42.6509 15.6605C43.0004 15.5241 43.271 15.3345 43.4627 15.0916C43.6545 14.8487 43.7504 14.5696 43.7504 14.2543C43.7504 13.9602 43.663 13.7131 43.4883 13.5128C43.3178 13.3125 43.0664 13.142 42.734 13.0014C42.4059 12.8608 42.0032 12.733 41.5259 12.6179L40.1005 12.2599C38.9968 11.9915 38.1254 11.5717 37.4862 11.0007C36.8469 10.4297 36.5295 9.66051 36.5337 8.69318C36.5295 7.90057 36.7404 7.2081 37.1665 6.61577C37.5969 6.02344 38.1871 5.56108 38.9371 5.22869C39.6871 4.89631 40.5394 4.73011 41.494 4.73011C42.4656 4.73011 43.3136 4.89631 44.038 5.22869C44.7667 5.56108 45.3335 6.02344 45.7383 6.61577C46.1431 7.2081 46.3519 7.89418 46.3647 8.67401H43.712ZM55.5069 8.67401C55.4558 8.15838 55.2363 7.75781 54.8485 7.4723C54.4608 7.18679 53.9345 7.04403 53.2697 7.04403C52.818 7.04403 52.4366 7.10795 52.1255 7.2358C51.8145 7.35937 51.5758 7.53196 51.4096 7.75355C51.2477 7.97514 51.1667 8.22656 51.1667 8.50781C51.1582 8.74219 51.2072 8.94673 51.3137 9.12145C51.4245 9.29616 51.5758 9.44744 51.7676 9.57528C51.9593 9.69886 52.1809 9.80753 52.4324 9.90128C52.6838 9.99077 52.9522 10.0675 53.2377 10.1314L54.4139 10.4126C54.9849 10.5405 55.5091 10.7109 55.9863 10.924C56.4636 11.1371 56.877 11.3991 57.2264 11.7102C57.5758 12.0213 57.8464 12.3878 58.0382 12.8097C58.2342 13.2315 58.3343 13.7152 58.3386 14.2607C58.3343 15.0618 58.1298 15.7564 57.725 16.3445C57.3244 16.9283 56.7449 17.3821 55.9863 17.706C55.2321 18.0256 54.3223 18.1854 53.2569 18.1854C52.2001 18.1854 51.2797 18.0234 50.4956 17.6996C49.7157 17.3757 49.1064 16.8963 48.6674 16.2614C48.2328 15.6222 48.0048 14.8317 47.9835 13.8899H50.6618C50.6916 14.3288 50.8173 14.6953 51.0389 14.9893C51.2647 15.2791 51.5652 15.4986 51.9402 15.6477C52.3194 15.7926 52.7477 15.8651 53.225 15.8651C53.6937 15.8651 54.1007 15.7969 54.4458 15.6605C54.7953 15.5241 55.0659 15.3345 55.2576 15.0916C55.4494 14.8487 55.5453 14.5696 55.5453 14.2543C55.5453 13.9602 55.4579 13.7131 55.2832 13.5128C55.1127 13.3125 54.8613 13.142 54.5289 13.0014C54.2008 12.8608 53.7981 12.733 53.3208 12.6179L51.8954 12.2599C50.7917 11.9915 49.9203 11.5717 49.2811 11.0007C48.6419 10.4297 48.3244 9.66051 48.3287 8.69318C48.3244 7.90057 48.5353 7.2081 48.9615 6.61577C49.3919 6.02344 49.9821 5.56108 50.7321 5.22869C51.4821 4.89631 52.3343 4.73011 53.2889 4.73011C54.2605 4.73011 55.1085 4.89631 55.8329 5.22869C56.5616 5.56108 57.1284 6.02344 57.5332 6.61577C57.938 7.2081 58.1468 7.89418 58.1596 8.67401H55.5069Z" fill="black"/>
</svg>
