<svg width="81" height="99" viewBox="0 0 81 99" fill="none" xmlns="http://www.w3.org/2000/svg">
<path d="M74 21H4L10.1765 90.7895L39 99L67.8235 90.7895L74 21Z" fill="#E65100"/>
<path d="M39 27.1577V92.6367L62.0588 86.0683L67.2059 27.1577H39Z" fill="#FF6D00"/>
<path d="M39 62.0525V53.842H56.7059L55.2647 77.4472L39 82.7841V74.163L47.4412 71.2893L48.0588 62.0525H39V62.0525ZM57.3235 45.6314L57.9412 37.4209H39V45.6314H57.3235Z" fill="white"/>
<path d="M39 74.163V82.7841L22.7353 77.4472L21.9118 66.1577H30.147L30.5588 71.2893L39 74.163ZM28.9118 45.6314H39V37.4209H20.2647L21.7059 62.0525H39V53.842H29.5294L28.9118 45.6314Z" fill="#EEEEEE"/>
<path d="M15.5694 18V4.90909H18.3372V10.3104H23.9558V4.90909H26.7172V18H23.9558V12.5923H18.3372V18H15.5694ZM28.5005 7.19105V4.90909H39.252V7.19105H35.2441V18H32.5083V7.19105H28.5005ZM41.0225 4.90909H44.4359L48.041 13.7045H48.1944L51.7995 4.90909H55.2129V18H52.5282V9.4794H52.4196L49.0318 17.9361H47.2037L43.8159 9.44744H43.7072V18H41.0225V4.90909ZM57.4933 18V4.90909H60.261V15.718H65.8732V18H57.4933Z" fill="black"/>
</svg>
