<svg width="100" height="100" viewBox="0 0 100 100" fill="none" xmlns="http://www.w3.org/2000/svg">
<path d="M29.6844 23.4375C22.6496 23.454 15.9086 26.2602 10.9401 31.2404C5.97158 36.2206 3.18127 42.9682 3.18127 50.0031C3.18127 57.0379 5.97158 63.7855 10.9401 68.7657C15.9086 73.7459 22.6496 76.5521 29.6844 76.5686C36.7192 76.5521 43.4603 73.7459 48.4288 68.7657C53.3973 63.7855 56.1876 57.0379 56.1876 50.0031C56.1876 42.9682 53.3973 36.2206 48.4288 31.2404C43.4603 26.2602 36.7192 23.454 29.6844 23.4375V23.4375ZM71.0907 25C67.573 25.016 64.2024 27.6574 61.718 32.3446C59.2337 37.0319 57.8385 43.3823 57.8385 50.0031C57.8385 56.6238 59.2337 62.9743 61.718 67.6615C64.2024 72.3487 67.573 74.9901 71.0907 75.0061C74.6083 74.9901 77.979 72.3487 80.4633 67.6615C82.9477 62.9743 84.3429 56.6238 84.3429 50.0031C84.3429 43.3823 82.9477 37.0319 80.4633 32.3446C77.979 27.6574 74.6083 25.016 71.0907 25V25ZM91.4062 26.5625C90.6869 26.5548 89.9743 27.1554 89.3092 28.3299C88.6442 29.5045 88.0397 31.2299 87.5304 33.4073C87.0211 35.5847 86.6171 38.1714 86.3414 41.0192C86.0657 43.8669 85.9238 46.9198 85.9238 50.0031C85.9238 53.0863 86.0657 56.1392 86.3414 58.9869C86.6171 61.8347 87.0211 64.4214 87.5304 66.5988C88.0397 68.7762 88.6442 70.5016 89.3092 71.6762C89.9743 72.8507 90.6869 73.4513 91.4062 73.4436C92.1256 73.4513 92.8382 72.8507 93.5032 71.6762C94.1683 70.5016 94.7728 68.7762 95.2821 66.5988C95.7913 64.4214 96.1954 61.8347 96.4711 58.9869C96.7468 56.1392 96.8887 53.0863 96.8887 50.0031C96.8887 46.9198 96.7468 43.8669 96.4711 41.0192C96.1954 38.1714 95.7913 35.5847 95.2821 33.4073C94.7728 31.2299 94.1683 29.5045 93.5032 28.3299C92.8382 27.1554 92.1256 26.5548 91.4062 26.5625V26.5625Z" fill="#0B9890"/>
</svg>
