<svg width="70" height="70" viewBox="0 0 70 70" fill="none" xmlns="http://www.w3.org/2000/svg">
<path d="M0 70V0H70V70H0Z" fill="#FFD600"/>
<path d="M45.7684 52.3969C47.1139 54.5825 48.5761 56.6766 51.6736 56.6766C54.2753 56.6766 55.6403 55.3836 55.6403 53.5947C55.6403 51.4539 54.2286 50.6936 51.3664 49.4472L49.7972 48.7783C45.2686 46.8572 42.2567 44.45 42.2567 39.3653C42.2567 34.6791 45.8442 31.113 51.45 31.113C55.442 31.113 58.31 32.4955 60.3789 36.1161L55.4906 39.2408C54.4153 37.3197 53.2525 36.5633 51.45 36.5633C49.6106 36.5633 48.4459 37.7241 48.4459 39.2408C48.4459 41.1153 49.6125 41.8736 52.3056 43.0344L53.8747 43.7033C59.2122 45.9764 62.2222 48.298 62.2222 53.5169C62.2222 59.1402 57.7811 62.2222 51.8195 62.2222C45.9881 62.2222 42.6767 59.2958 40.8334 55.6733L45.7684 52.3969ZM23.24 52.5564C24.2239 54.318 25.7192 55.6733 27.8697 55.6733C29.927 55.6733 31.1111 54.8605 31.1111 51.7008V31.1111H37.592V52.6964C37.592 59.2433 33.7945 62.2222 28.2489 62.2222C23.2381 62.2222 19.6214 58.8272 18.1475 55.6733L23.24 52.5564Z" fill="#000001"/>
</svg>
