<svg width="77" height="76" viewBox="0 0 77 76" fill="none" xmlns="http://www.w3.org/2000/svg">
<path d="M38.9689 0.000146334C35.8589 0.0101463 33.7029 0.284147 31.0969 0.734147C23.4009 2.07415 21.9989 4.88815 21.9989 10.0741V18.0001H39.9989V22.0001H21.3149H12.6149C7.3429 22.0001 2.7289 24.4841 1.2669 30.4381C-0.385098 37.2721 -0.459098 41.5521 1.2669 48.6881C2.5769 54.0101 5.4629 58.0001 10.7369 58.0001H18.0009V47.7921C18.0009 41.8601 23.3729 36.0001 29.5289 36.0001H44.0009C49.0469 36.0001 54.0009 32.2761 54.0009 27.2461V10.0741C54.0009 5.19615 50.4829 1.54815 45.5649 0.730146C45.6869 0.718146 42.0529 -0.0118537 38.9689 0.000146334ZM29.0009 8.00015C30.6429 8.00015 32.0009 9.35415 32.0009 11.0041C32.0009 12.6701 30.6429 14.0001 29.0009 14.0001C27.3269 14.0001 26.0009 12.6721 26.0009 11.0041C26.0009 9.36015 27.3269 8.00015 29.0009 8.00015Z" fill="#0277BD"/>
<path d="M37.0309 76.0002C40.1409 75.9902 42.2969 75.7162 44.9029 75.2662C52.5989 73.9262 54.0009 71.1122 54.0009 65.9262V58.0002H36.0009V54.0002H54.6869H63.3869C68.6589 54.0002 73.2729 51.5162 74.7349 45.5622C76.3869 38.7282 76.4609 34.4482 74.7349 27.3122C73.4229 21.9902 70.5369 18.0002 65.2629 18.0002H57.9989V28.2082C57.9989 34.1402 52.6269 40.0002 46.4709 40.0002H31.9989C26.9529 40.0002 21.9989 43.7242 21.9989 48.7542V65.9262C21.9989 70.8042 25.5169 74.4522 30.4349 75.2702C30.3129 75.2822 33.9469 76.0122 37.0309 76.0002ZM47.0009 68.0002C45.3589 68.0002 44.0009 66.6462 44.0009 64.9962C44.0009 63.3302 45.3589 62.0002 47.0009 62.0002C48.6749 62.0002 50.0009 63.3282 50.0009 64.9962C50.0009 66.6402 48.6729 68.0002 47.0009 68.0002Z" fill="#FFC107"/>
</svg>
