<svg width="104" height="102" viewBox="0 0 104 102" fill="none" xmlns="http://www.w3.org/2000/svg">
<path d="M91.721 25.9218C91.7847 27.0155 91.7847 28.1094 91.7847 29.2031C91.7847 62.5623 71.1627 101 33.4722 101C21.8604 101 11.0737 96.8593 2 89.672C3.64981 89.9063 5.23595 89.9843 6.94923 89.9843C16.5303 89.9843 25.3503 86 32.3935 79.2033C23.3833 78.9687 15.8325 71.7033 13.2309 61.703C14.5 61.9373 15.769 62.0937 17.1016 62.0937C18.9417 62.0937 20.7819 61.781 22.495 61.2343C13.1041 58.8903 6.06077 48.7343 6.06077 36.4687V36.1563C8.7891 38.0313 11.962 39.2033 15.3247 39.3593C9.80433 34.828 6.1877 27.0936 6.1877 18.3436C6.1877 13.6562 7.20277 9.3593 8.97953 5.60927C19.0684 20.9217 34.2335 30.9216 51.2383 32.0155C50.9213 30.1405 50.731 28.1876 50.731 26.2344C50.731 12.328 59.868 1 71.226 1C77.127 1 82.4567 4.04687 86.2007 8.96873C90.8323 7.87503 95.274 5.76557 99.2083 2.87501C97.685 8.73453 94.4493 13.6564 90.198 16.7812C94.3223 16.2346 98.32 14.828 102 12.8751C99.2087 17.8749 95.7187 22.3278 91.721 25.9218Z" fill="#479CFF"/>
<path d="M91.721 25.9218C91.7847 27.0155 91.7847 28.1094 91.7847 29.2031C91.7847 62.5623 71.1627 101 33.4722 101C21.8604 101 11.0737 96.8593 2 89.672C3.64981 89.9063 5.23595 89.9843 6.94923 89.9843C16.5303 89.9843 25.3503 86 32.3935 79.2033C23.3833 78.9687 15.8325 71.7033 13.2309 61.703C14.5 61.9373 15.769 62.0937 17.1016 62.0937C18.9417 62.0937 20.7819 61.781 22.495 61.2343C13.1041 58.8903 6.06077 48.7343 6.06077 36.4687V36.1563C8.7891 38.0313 11.962 39.2033 15.3247 39.3593C9.80433 34.828 6.1877 27.0936 6.1877 18.3436C6.1877 13.6562 7.20277 9.3593 8.97953 5.60927C19.0684 20.9217 34.2335 30.9216 51.2383 32.0155C50.9213 30.1405 50.731 28.1876 50.731 26.2344C50.731 12.328 59.868 1 71.226 1C77.127 1 82.4567 4.04687 86.2007 8.96873C90.8323 7.87503 95.274 5.76557 99.2083 2.87501C97.685 8.73453 94.4493 13.6564 90.198 16.7812C94.3223 16.2346 98.32 14.828 102 12.8751C99.2087 17.8749 95.7187 22.3278 91.721 25.9218Z" fill="#479CFF" stroke="white"/>
</svg>
