<svg width="100" height="78" viewBox="0 0 100 78" fill="none" xmlns="http://www.w3.org/2000/svg">
<path d="M97.9103 12.2043C96.7603 7.40045 93.3717 3.61705 89.0693 2.33309C81.2709 0 50 0 50 0C50 0 18.7293 0 10.9307 2.33309C6.62823 3.61727 3.23967 7.40045 2.0896 12.2043C0 20.9117 0 39.0789 0 39.0789C0 39.0789 0 57.2458 2.0896 65.9534C3.23967 70.7572 6.62823 74.383 10.9307 75.6669C18.7293 78 50 78 50 78C50 78 81.2706 78 89.0693 75.6669C93.3717 74.383 96.7603 70.7572 97.9103 65.9534C100 57.2458 100 39.0789 100 39.0789C100 39.0789 100 20.9117 97.9103 12.2043ZM39.7726 55.5731V22.5845L65.909 39.0792L39.7726 55.5731Z" fill="#E11B1B"/>
</svg>
